<svg width="130" height="22" viewBox="0 0 130 22" fill="none" xmlns="http://www.w3.org/2000/svg">
<path d="M0.309304 21V0.636363H7.94567C9.51006 0.636363 10.8226 0.92803 11.8832 1.51136C12.9504 2.0947 13.7558 2.89678 14.2994 3.91761C14.8496 4.93182 15.1246 6.08523 15.1246 7.37784C15.1246 8.68371 14.8496 9.84375 14.2994 10.858C13.7492 11.8722 12.9371 12.6709 11.8633 13.2543C10.7894 13.831 9.46697 14.1193 7.89595 14.1193H2.83487V11.0866H7.39879C8.31357 11.0866 9.06262 10.9276 9.64595 10.6094C10.2293 10.2912 10.6602 9.85369 10.9386 9.29688C11.2236 8.74006 11.3661 8.10038 11.3661 7.37784C11.3661 6.6553 11.2236 6.01894 10.9386 5.46875C10.6602 4.91856 10.226 4.491 9.63601 4.18608C9.05268 3.87453 8.30031 3.71875 7.37891 3.71875H3.99822V21H0.309304ZM22.2912 21.3082C21.3234 21.3082 20.4517 21.1359 19.6761 20.7912C18.9072 20.4399 18.2973 19.9228 17.8466 19.2401C17.4025 18.5573 17.1804 17.7154 17.1804 16.7145C17.1804 15.8527 17.3395 15.1402 17.6577 14.5767C17.9759 14.0133 18.41 13.5625 18.9602 13.2244C19.5104 12.8864 20.1302 12.6312 20.8196 12.4588C21.5156 12.2798 22.2348 12.1506 22.9773 12.071C23.8722 11.9782 24.598 11.8954 25.1548 11.8224C25.7116 11.7429 26.116 11.6236 26.3679 11.4645C26.6264 11.2988 26.7557 11.0436 26.7557 10.6989V10.6392C26.7557 9.89015 26.5336 9.31013 26.0895 8.89915C25.6454 8.48816 25.0057 8.28267 24.1705 8.28267C23.2888 8.28267 22.5895 8.47491 22.0724 8.85938C21.562 9.24384 21.2173 9.69792 21.0384 10.2216L17.6776 9.74432C17.9427 8.81629 18.3802 8.04072 18.9901 7.41761C19.5999 6.78788 20.3456 6.31723 21.2273 6.00568C22.1089 5.6875 23.0833 5.52841 24.1506 5.52841C24.8864 5.52841 25.6188 5.61458 26.348 5.78693C27.0772 5.95928 27.7434 6.24432 28.3466 6.64204C28.9498 7.03314 29.4337 7.56676 29.7983 8.2429C30.1695 8.91903 30.3551 9.7642 30.3551 10.7784V21H26.8949V18.902H26.7756C26.5568 19.3262 26.2486 19.724 25.8509 20.0952C25.4598 20.4598 24.9659 20.7547 24.3693 20.9801C23.7794 21.1989 23.0866 21.3082 22.2912 21.3082ZM23.2259 18.6634C23.9484 18.6634 24.5748 18.5208 25.1051 18.2358C25.6354 17.9441 26.0431 17.5597 26.3281 17.0824C26.6198 16.6051 26.7656 16.0848 26.7656 15.5213V13.7216C26.6529 13.8144 26.4607 13.9006 26.1889 13.9801C25.9238 14.0597 25.6255 14.1293 25.294 14.1889C24.9626 14.2486 24.6345 14.3016 24.3097 14.348C23.9848 14.3944 23.7031 14.4342 23.4645 14.4673C22.9276 14.5402 22.447 14.6596 22.0227 14.8253C21.5985 14.991 21.2637 15.223 21.0185 15.5213C20.7732 15.813 20.6506 16.1908 20.6506 16.6548C20.6506 17.3177 20.8925 17.8182 21.3764 18.1562C21.8603 18.4943 22.4768 18.6634 23.2259 18.6634ZM46.0455 9.7642L42.7642 10.1222C42.6714 9.79072 42.509 9.47917 42.277 9.1875C42.0516 8.89583 41.7467 8.66051 41.3622 8.48153C40.9777 8.30256 40.5071 8.21307 39.9503 8.21307C39.2012 8.21307 38.5715 8.37547 38.0611 8.70028C37.5573 9.02509 37.3087 9.44602 37.3153 9.96307C37.3087 10.4072 37.4711 10.7685 37.8026 11.0469C38.1406 11.3253 38.6974 11.554 39.473 11.733L42.0781 12.2898C43.5232 12.6013 44.5971 13.0952 45.2997 13.7713C46.009 14.4474 46.367 15.3324 46.3736 16.4261C46.367 17.3873 46.0852 18.2358 45.5284 18.9716C44.9782 19.7008 44.2126 20.2708 43.2315 20.6818C42.2505 21.0928 41.1236 21.2983 39.8509 21.2983C37.9815 21.2983 36.4768 20.9072 35.3366 20.125C34.1965 19.3362 33.517 18.2391 33.2983 16.8338L36.8082 16.4957C36.9673 17.1851 37.3054 17.7055 37.8224 18.0568C38.3395 18.4081 39.0123 18.5838 39.8409 18.5838C40.696 18.5838 41.3821 18.4081 41.8991 18.0568C42.4228 17.7055 42.6847 17.2713 42.6847 16.7543C42.6847 16.3168 42.5156 15.9555 42.1776 15.6705C41.8461 15.3854 41.3291 15.1667 40.6264 15.0142L38.0213 14.4673C36.5563 14.1624 35.4725 13.6487 34.7699 12.9261C34.0672 12.197 33.7192 11.2756 33.7259 10.1619C33.7192 9.22064 33.9744 8.4053 34.4915 7.71591C35.0152 7.01989 35.741 6.48295 36.669 6.10511C37.6037 5.72064 38.6809 5.52841 39.9006 5.52841C41.6903 5.52841 43.099 5.90956 44.1264 6.67188C45.1605 7.43419 45.8002 8.46496 46.0455 9.7642ZM61.4126 9.7642L58.1314 10.1222C58.0386 9.79072 57.8762 9.47917 57.6442 9.1875C57.4188 8.89583 57.1139 8.66051 56.7294 8.48153C56.3449 8.30256 55.8743 8.21307 55.3175 8.21307C54.5684 8.21307 53.9387 8.37547 53.4283 8.70028C52.9245 9.02509 52.6759 9.44602 52.6825 9.96307C52.6759 10.4072 52.8383 10.7685 53.1697 11.0469C53.5078 11.3253 54.0646 11.554 54.8402 11.733L57.4453 12.2898C58.8904 12.6013 59.9643 13.0952 60.6669 13.7713C61.3762 14.4474 61.7341 15.3324 61.7408 16.4261C61.7341 17.3873 61.4524 18.2358 60.8956 18.9716C60.3454 19.7008 59.5798 20.2708 58.5987 20.6818C57.6177 21.0928 56.4908 21.2983 55.218 21.2983C53.3487 21.2983 51.844 20.9072 50.7038 20.125C49.5637 19.3362 48.8842 18.2391 48.6655 16.8338L52.1754 16.4957C52.3345 17.1851 52.6726 17.7055 53.1896 18.0568C53.7067 18.4081 54.3795 18.5838 55.2081 18.5838C56.0632 18.5838 56.7493 18.4081 57.2663 18.0568C57.79 17.7055 58.0518 17.2713 58.0518 16.7543C58.0518 16.3168 57.8828 15.9555 57.5447 15.6705C57.2133 15.3854 56.6963 15.1667 55.9936 15.0142L53.3885 14.4673C51.9235 14.1624 50.8397 13.6487 50.1371 12.9261C49.4344 12.197 49.0864 11.2756 49.093 10.1619C49.0864 9.22064 49.3416 8.4053 49.8587 7.71591C50.3823 7.01989 51.1082 6.48295 52.0362 6.10511C52.9709 5.72064 54.0481 5.52841 55.2678 5.52841C57.0575 5.52841 58.4661 5.90956 59.4936 6.67188C60.5277 7.43419 61.1674 8.46496 61.4126 9.7642ZM67.8608 21L63.5455 5.72727H67.2145L69.8991 16.4659H70.0384L72.7827 5.72727H76.4119L79.1562 16.4062H79.3054L81.9503 5.72727H85.6293L81.304 21H77.5554L74.6918 10.679H74.483L71.6193 21H67.8608ZM94.3668 21.2983C92.8754 21.2983 91.5827 20.9702 90.489 20.3139C89.3952 19.6577 88.5468 18.7396 87.9435 17.5597C87.3469 16.3797 87.0487 15.0009 87.0487 13.4233C87.0487 11.8456 87.3469 10.4635 87.9435 9.27699C88.5468 8.09043 89.3952 7.16903 90.489 6.51278C91.5827 5.85653 92.8754 5.52841 94.3668 5.52841C95.8583 5.52841 97.1509 5.85653 98.2447 6.51278C99.3384 7.16903 100.184 8.09043 100.78 9.27699C101.383 10.4635 101.685 11.8456 101.685 13.4233C101.685 15.0009 101.383 16.3797 100.78 17.5597C100.184 18.7396 99.3384 19.6577 98.2447 20.3139C97.1509 20.9702 95.8583 21.2983 94.3668 21.2983ZM94.3867 18.4148C95.1954 18.4148 95.8716 18.1927 96.4151 17.7486C96.9587 17.2978 97.363 16.6946 97.6282 15.9389C97.9 15.1832 98.0359 14.3414 98.0359 13.4134C98.0359 12.4787 97.9 11.6335 97.6282 10.8778C97.363 10.1155 96.9587 9.509 96.4151 9.05824C95.8716 8.60748 95.1954 8.3821 94.3867 8.3821C93.5581 8.3821 92.8687 8.60748 92.3185 9.05824C91.775 9.509 91.3673 10.1155 91.0955 10.8778C90.8304 11.6335 90.6978 12.4787 90.6978 13.4134C90.6978 14.3414 90.8304 15.1832 91.0955 15.9389C91.3673 16.6946 91.775 17.2978 92.3185 17.7486C92.8687 18.1927 93.5581 18.4148 94.3867 18.4148ZM104.74 21V5.72727H108.23V8.27273H108.389C108.668 7.3911 109.145 6.71165 109.821 6.23438C110.504 5.75047 111.283 5.50852 112.158 5.50852C112.357 5.50852 112.579 5.51847 112.824 5.53835C113.076 5.55161 113.285 5.57481 113.45 5.60795V8.91903C113.298 8.866 113.056 8.8196 112.724 8.77983C112.4 8.73343 112.085 8.71023 111.78 8.71023C111.124 8.71023 110.534 8.85275 110.01 9.13778C109.493 9.41619 109.085 9.80398 108.787 10.3011C108.489 10.7983 108.339 11.3717 108.339 12.0213V21H104.74ZM120.88 21.2685C119.681 21.2685 118.607 20.9602 117.659 20.3438C116.711 19.7273 115.962 18.8324 115.412 17.6591C114.861 16.4858 114.586 15.0606 114.586 13.3835C114.586 11.6866 114.865 10.2547 115.422 9.08807C115.985 7.91477 116.744 7.02983 117.699 6.43324C118.653 5.83002 119.717 5.52841 120.89 5.52841C121.785 5.52841 122.521 5.68087 123.098 5.98579C123.674 6.28409 124.132 6.64536 124.47 7.0696C124.808 7.48722 125.07 7.88163 125.255 8.25284H125.404V0.636363H129.014V21H125.474V18.5938H125.255C125.07 18.965 124.801 19.3594 124.45 19.777C124.099 20.188 123.635 20.5393 123.058 20.831C122.481 21.1226 121.755 21.2685 120.88 21.2685ZM121.885 18.3153C122.647 18.3153 123.297 18.1098 123.833 17.6989C124.37 17.2812 124.778 16.7012 125.056 15.9588C125.335 15.2164 125.474 14.3513 125.474 13.3636C125.474 12.3759 125.335 11.5175 125.056 10.7884C124.785 10.0592 124.38 9.49242 123.843 9.08807C123.313 8.68371 122.66 8.48153 121.885 8.48153C121.083 8.48153 120.413 8.69034 119.876 9.10795C119.339 9.52557 118.935 10.1023 118.663 10.8381C118.391 11.5739 118.255 12.4157 118.255 13.3636C118.255 14.3182 118.391 15.17 118.663 15.919C118.941 16.6615 119.349 17.2481 119.886 17.679C120.43 18.1032 121.096 18.3153 121.885 18.3153Z" fill="white"/>
</svg>
